<?xml version="1.0" encoding="UTF-8" standalone="no"?>
<!DOCTYPE svg PUBLIC "-//W3C//DTD SVG 1.1//EN" "http://www.w3.org/Graphics/SVG/1.1/DTD/svg11.dtd">
<svg width="100%" height="100%" viewBox="0 0 3000 3000" version="1.1" xmlns="http://www.w3.org/2000/svg" xmlns:xlink="http://www.w3.org/1999/xlink" xml:space="preserve" xmlns:serif="http://www.serif.com/" style="fill-rule:evenodd;clip-rule:evenodd;stroke-linejoin:round;stroke-miterlimit:2;">
    <g transform="matrix(1.08074,0,0,1.08074,-225.507,-108.441)">
        <path d="M1558.42,1607.25C1503.85,1652.92 1446.62,1691.2 1386.73,1722.09C1272.69,1780.9 1153.59,1810.31 1029.43,1810.31C947.745,1810.31 868.346,1793.48 791.234,1759.83C714.123,1726.17 644.526,1677.32 582.445,1613.28C508.601,1538.78 451.911,1455.3 412.375,1362.83C372.839,1270.36 353.071,1175.77 353.071,1079.06C353.071,945.09 381.498,822.725 438.351,711.958C495.204,601.192 575.91,510.848 680.468,440.924C750.392,394.527 825.706,359.892 906.412,337.02C987.117,314.148 1074.52,302.712 1168.62,302.712C1254.23,302.712 1333.96,316.108 1407.8,342.901C1481.64,369.694 1550.91,410.537 1615.61,465.43L1672.46,302.712L1772.45,838.898C1729.32,776.164 1678.34,728.622 1619.53,696.275C1560.72,663.927 1497.33,647.753 1429.37,647.753C1350.95,647.753 1287.88,670.789 1240.18,716.86C1192.48,762.93 1168.62,823.541 1168.62,898.693C1168.62,978.418 1198.36,1045.24 1257.83,1099.15C1317.29,1153.06 1391.79,1180.02 1481.32,1180.02C1536.21,1180.02 1593.39,1170.38 1652.86,1151.1C1712.33,1131.82 1776.37,1102.58 1844.98,1063.37L1844.8,1064.58C1870.93,1048.79 1898.67,1034.52 1928.01,1021.75C2017.74,982.702 2110.36,963.179 2205.9,963.179C2378.7,963.179 2523.87,1021.33 2641.43,1137.64C2758.98,1253.94 2817.75,1398.08 2817.75,1570.05C2817.75,1737.03 2765,1872.44 2659.49,1976.29C2563.13,2071.82 2443.74,2121.59 2249.35,2121.59L2146.09,2118.35L2232.09,1786.23C2251.41,1865.23 2268.56,1960.33 2268.56,1960.33C2268.56,1960.33 2433.94,1844.71 2413.36,1665.09C2397.83,1529.54 2260.32,1447.93 2182.22,1447.93C2103.3,1447.93 1996.84,1487.94 1972.84,1585.97C1972.84,1585.97 1831.84,2663.52 1840.84,2557.52C1831.84,2663.52 1557.91,2706.52 1557.91,2706.52L1557.91,1647.31C1557.91,1633.64 1558.08,1620.29 1558.42,1607.25Z" style="fill:rgb(56,159,214);fill-rule:nonzero;"/>
    </g>
</svg>
